<svg xmlns="http://www.w3.org/2000/svg" version="1.1" xmlns:xlink="http://www.w3.org/1999/xlink" xmlns:svgjs="http://svgjs.com/svgjs" width="300" height="350" preserveAspectRatio="none" viewBox="0 0 300 350"><g mask="url(&quot;#SvgjsMask1158&quot;)" fill="none"><rect width="300" height="350" x="0" y="0" fill="url(#SvgjsLinearGradient1159)"></rect><path d="M13.147,143.245C29.067,143.057,38.46,127.214,46.105,113.249C53.337,100.038,59.119,85.037,52.388,71.564C45.02,56.815,29.603,46.272,13.147,47.278C-2.091,48.21,-11.599,62.327,-18.58,75.903C-24.826,88.049,-27.008,101.688,-21.187,114.043C-14.324,128.61,-2.955,143.435,13.147,143.245" fill="rgba(0, 0, 0, 0.4)" class="triangle-float2"></path><path d="M265.531,209.102C280.211,209.653,296.283,207.005,303.962,194.482C311.899,181.537,308.641,164.921,300.468,152.123C292.926,140.314,279.543,134.216,265.531,134.303C251.683,134.389,238.346,140.608,231.335,152.55C224.241,164.635,224.543,179.781,231.794,191.772C238.805,203.367,251.991,208.593,265.531,209.102" fill="rgba(0, 0, 0, 0.4)" class="triangle-float1"></path><path d="M249.62010950284412 294.15002501667584L201.86402304910462 252.6362924124349 160.35029044486367 300.3923788661744 208.10637689860317 341.90611147041534z" fill="rgba(0, 0, 0, 0.4)" class="triangle-float1"></path><path d="M122.336,229.775C149.767,231.118,175.302,216.543,190.042,193.37C206.017,168.256,214.097,135.644,198.23,110.462C183.038,86.351,150.72,83.367,122.336,85.912C98.734,88.028,78.478,101.597,66.842,122.241C55.432,142.484,54.556,166.612,65.212,187.261C76.879,209.868,96.926,228.531,122.336,229.775" fill="rgba(0, 0, 0, 0.4)" class="triangle-float1"></path><path d="M151.678,87.303C172.365,88.542,190.614,74.241,200.55,56.054C210.08,38.611,209.355,17.485,199.135,0.438C189.203,-16.129,170.979,-24.702,151.678,-25.463C130.739,-26.289,106.938,-22.167,97.26,-3.581C87.971,14.257,101.66,33.496,111.992,50.751C121.894,67.289,132.436,86.151,151.678,87.303" fill="rgba(0, 0, 0, 0.4)" class="triangle-float3"></path><path d="M57.34791324111853 6.355090581631401L121.52003327498267 62.13906346462044 113.13188612410758-57.81702945223273z" fill="rgba(0, 0, 0, 0.4)" class="triangle-float1"></path><path d="M223.915,168.545C240.498,168.881,256.245,159.546,263.796,144.779C270.796,131.09,265.443,115.53,257.864,102.153C250.14,88.519,239.577,74.882,223.915,74.382C207.601,73.861,193.747,85.497,185.991,99.858C178.629,113.49,179.251,129.654,186.74,143.217C194.508,157.286,207.847,168.219,223.915,168.545" fill="rgba(0, 0, 0, 0.4)" class="triangle-float2"></path><path d="M206.4706290945058-29.324741784833634L111.97381367769145-0.5326126217152733 174.09191892268421 59.454144325658646z" fill="rgba(0, 0, 0, 0.4)" class="triangle-float3"></path><path d="M-7.461278856105926 226.35831879277183L-38.408809457671666 252.32638030639322 16.017048113543304 285.7636454519311z" fill="rgba(0, 0, 0, 0.4)" class="triangle-float2"></path><path d="M261.785,267.481C269.909,267.154,275.488,260.279,279.518,253.217C283.502,246.237,286.767,237.834,282.639,230.938C278.582,224.161,269.679,223.319,261.785,223.596C254.493,223.852,247.316,226.213,243.32,232.318C238.914,239.049,237.65,247.631,241.39,254.754C245.383,262.358,253.203,267.827,261.785,267.481" fill="rgba(0, 0, 0, 0.4)" class="triangle-float2"></path><path d="M298.5083630734283 237.62548206068385L255.20959008541945 236.869699166866 275.7253022386971 302.1957500957882z" fill="rgba(0, 0, 0, 0.4)" class="triangle-float3"></path><path d="M-18.701278597654934 274.84256405514446L-34.001165046869566 314.70013093505037 33.43512849759661 317.7211771689194z" fill="rgba(0, 0, 0, 0.4)" class="triangle-float3"></path><path d="M31.421,72.148C42.341,72.577,53.374,68.478,59.125,59.186C65.159,49.436,64.969,37.061,59.306,27.091C53.573,16.997,43.02,9.927,31.421,10.409C20.488,10.863,12.304,19.532,7.277,29.251C2.699,38.103,2.36,48.462,7.248,57.147C12.233,66.004,21.265,71.749,31.421,72.148" fill="rgba(0, 0, 0, 0.4)" class="triangle-float2"></path></g><defs><mask id="SvgjsMask1158"><rect width="300" height="350" fill="#ffffff"></rect></mask><linearGradient x1="-4.17%" y1="3.57%" x2="104.17%" y2="96.43%" gradientUnits="userSpaceOnUse" id="SvgjsLinearGradient1159"><stop stop-color="#0e2a47" offset="0"></stop><stop stop-color="rgba(1, 5, 10, 1)" offset="1"></stop></linearGradient><style>
            @keyframes float1 {
                0%{transform: translate(0, 0)}
                50%{transform: translate(-10px, 0)}
                100%{transform: translate(0, 0)}
            }

            .triangle-float1 {
                animation: float1 5s infinite;
            }

            @keyframes float2 {
                0%{transform: translate(0, 0)}
                50%{transform: translate(-5px, -5px)}
                100%{transform: translate(0, 0)}
            }

            .triangle-float2 {
                animation: float2 4s infinite;
            }

            @keyframes float3 {
                0%{transform: translate(0, 0)}
                50%{transform: translate(0, -10px)}
                100%{transform: translate(0, 0)}
            }

            .triangle-float3 {
                animation: float3 6s infinite;
            }
        </style></defs></svg>