<svg xmlns="http://www.w3.org/2000/svg" version="1.1" xmlns:xlink="http://www.w3.org/1999/xlink" xmlns:svgjs="http://svgjs.dev/svgjs" viewBox="0 0 800 800" opacity="1"><defs><filter id="bbburst-blur-1" x="-100%" y="-100%" width="400%" height="400%"><feGaussianBlur in="SourceGraphic" stdDeviation="1"></feGaussianBlur></filter><filter id="bbburst-blur-2" x="-100%" y="-100%" width="400%" height="400%"><feGaussianBlur in="SourceGraphic" stdDeviation="2"></feGaussianBlur></filter><filter id="bbburst-blur-3" x="-100%" y="-100%" width="400%" height="400%"><feGaussianBlur in="SourceGraphic" stdDeviation="4"></feGaussianBlur></filter><filter id="bbburst-blur-4" x="-100%" y="-100%" width="400%" height="400%"><feGaussianBlur in="SourceGraphic" stdDeviation="12"></feGaussianBlur></filter><symbol id="bbburst-shape-1" viewBox="0 0 194 167"><path d="m97 0 96.129 166.5H.871L97 0Z"></path></symbol><symbol id="bbburst-shape-4" viewBox="0 0 149 143"><path d="M71.647 2.781c.898-2.764 4.808-2.764 5.706 0l15.445 47.534a3 3 0 0 0 2.853 2.073h49.98c2.906 0 4.115 3.719 1.764 5.427L106.96 87.193a2.999 2.999 0 0 0-1.09 3.354l15.445 47.534c.898 2.764-2.266 5.062-4.617 3.354l-40.435-29.378a3 3 0 0 0-3.526 0l-40.435 29.378c-2.351 1.708-5.515-.59-4.617-3.354L43.13 90.547a3 3 0 0 0-1.09-3.354L1.605 57.815c-2.35-1.708-1.142-5.427 1.764-5.427h49.98a3 3 0 0 0 2.853-2.073L71.647 2.781Z"></path></symbol><symbol id="bbburst-shape-6" viewBox="0 0 133 116"><path d="M59.7487 10.2513c-13.6683-13.66839-35.8291-13.66839-49.4974 0-13.66839 13.6683-13.66839 35.8291 0 49.4974l49.4974-49.4974ZM66.5 66.5 41.7513 91.2487 66.5 115.997l24.7487-24.7483L66.5 66.5Zm56.249-6.7513c13.668-13.6683 13.668-35.8291 0-49.4974-13.669-13.66839-35.8294-13.66839-49.4977 0l49.4977 49.4974Zm-112.4977 0 31.5 31.5 49.4974-49.4974-31.5-31.5-49.4974 49.4974Zm80.9974 31.5 31.5003-31.5-49.4977-49.4974-31.5 31.5 49.4974 49.4974Z"></path></symbol><symbol id="bbburst-shape-8" viewBox="0 0 87 168"><path d="m12 12 31.2546 18.0749c16.4102 9.4902 20.014 31.6325 7.4603 45.8369L36.3296 92.1884c-12.5684 14.2206-8.9394 36.3916 7.5068 45.8636L75 156" stroke-width="14" stroke-linecap="round" stroke-linejoin="round"></path></symbol><symbol id="bbburst-shape-10" viewBox="0 0 145 145"><circle cx="72.5" cy="72.5" r="61.5" fill="none" stroke-width="22"></circle></symbol></defs><use xlink:href="#bbburst-shape-4" width="27.4811976075582" opacity="0.490230208684447" transform="matrix(0.9926448073236449,0.12106315084865381,-0.12106315084865381,0.9926448073236449,450.761309243062,230.1425884534263)" fill="#ff5c58" filter="url(#bbburst-blur-2)"></use><use xlink:href="#bbburst-shape-6" width="40.490192514677794" opacity="0.1817936622283003" transform="matrix(1.0811471159052422,-0.6273921530986637,0.6273921530986637,1.0811471159052422,250.56515415793166,327.1381082294189)" fill="#2c2891" filter="url(#bbburst-blur-3)"></use><use xlink:href="#bbburst-shape-1" width="29.597415155643343" opacity="0.3799626884876751" transform="matrix(0.98591681314983,0.16723647194461805,-0.16723647194461805,0.98591681314983,389.1850053451883,274.9810811985727)" fill="#ffa6d5" filter="url(#bbburst-blur-2)"></use><use xlink:href="#bbburst-shape-6" width="31.0072964231955" opacity="0.5475537346667584" transform="matrix(0.8392072859020621,-0.5438116689524919,0.5438116689524919,0.8392072859020621,-30.739747198001396,109.78162479075314)" fill="#ffa6d5" filter="url(#bbburst-blur-2)"></use><use xlink:href="#bbburst-shape-10" width="25.50909935020485" opacity="0.742789058804983" transform="matrix(0.8277205836388047,0.5611404774391493,-0.5611404774391493,0.8277205836388047,504.8590372386362,100.5770445503012)" fill="none" stroke="#00a19d" filter="url(#bbburst-blur-1)"></use><use xlink:href="#bbburst-shape-10" width="30.726060637549725" opacity="0.05870862098270524" transform="matrix(1.6915466968813155,0.44851953387774646,-0.44851953387774646,1.6915466968813155,773.4993477685489,-645.429534850061)" fill="none" stroke="#2c2891" filter="url(#bbburst-blur-4)"></use><use xlink:href="#bbburst-shape-6" width="24.423469315445985" opacity="0.16647749467257833" transform="matrix(1.1937430335765902,0.37077967822867547,-0.37077967822867547,1.1937430335765902,614.6062901969702,-448.2876690855737)" fill="#ffa6d5" filter="url(#bbburst-blur-3)"></use><use xlink:href="#bbburst-shape-10" width="25.580493931031604" opacity="0.5069162582819975" transform="matrix(0.780205796142471,-0.6255229137814962,0.6255229137814962,0.780205796142471,191.5521792217507,-119.85260933725502)" fill="none" stroke="#2c2891" filter="url(#bbburst-blur-2)"></use><use xlink:href="#bbburst-shape-10" width="40.182245653389245" opacity="0.21828338748310672" transform="matrix(1.0172854561717513,0.7263816494525668,-0.7263816494525668,1.0172854561717513,646.4231337417298,-372.48180126980674)" fill="none" stroke="#ffbd9b" filter="url(#bbburst-blur-3)"></use><use xlink:href="#bbburst-shape-6" width="35.82085274569319" opacity="0.1798705048979703" transform="matrix(1.2498834772398542,-0.017067317387654473,0.017067317387654473,1.2498834772398542,623.4818108413435,-368.6256465191973)" fill="#2c2891" filter="url(#bbburst-blur-3)"></use><use xlink:href="#bbburst-shape-6" width="31.881665241566903" opacity="0.13047669400039086" transform="matrix(1.0543659666926237,0.6714256535762757,-0.6714256535762757,1.0543659666926237,1015.087331567523,112.80734200857438)" fill="#2c2891" filter="url(#bbburst-blur-3)"></use><use xlink:href="#bbburst-shape-6" width="40.53488391030482" opacity="0.3178649763503162" transform="matrix(1.1700486294128414,-0.4398706682754958,0.4398706682754958,1.1700486294128414,-95.68279423332447,-140.32311864992886)" fill="#ffbd9b" filter="url(#bbburst-blur-3)"></use><use xlink:href="#bbburst-shape-6" width="17.261753675293985" opacity="0.809990422580473" transform="matrix(0.9992990755057897,0.037434712410729994,-0.037434712410729994,0.9992990755057897,395.7591066357159,84.80343702595991)" fill="#2c2891"></use><use xlink:href="#bbburst-shape-1" width="24.67835638075621" opacity="0.6191999757975644" transform="matrix(0.9348082500279357,0.35515283425549143,-0.35515283425549143,0.9348082500279357,434.5606884798972,163.69949641297706)" fill="#2c2891" filter="url(#bbburst-blur-1)"></use><use xlink:href="#bbburst-shape-10" width="35.58699629572994" opacity="-0.07879202539115715" transform="matrix(1.748315136065021,0.07677359576017787,-0.07677359576017787,1.748315136065021,735.9805246843985,49.33156882158937)" fill="none" stroke="#2c2891" filter="url(#bbburst-blur-4)"></use><use xlink:href="#bbburst-shape-1" width="22.214032201194357" opacity="0.6049069177825979" transform="matrix(0.9995587110856964,0.02970493381075546,-0.02970493381075546,0.9995587110856964,232.44352663812106,-57.33600166275869)" fill="#ffbd9b" filter="url(#bbburst-blur-1)"></use><use xlink:href="#bbburst-shape-4" width="32.10422319507059" opacity="0.37665548119058223" transform="matrix(0.8952311327744511,0.4456020858471974,-0.4456020858471974,0.8952311327744511,411.95995608230265,270.5989623651344)" fill="#ffa6d5" filter="url(#bbburst-blur-2)"></use><use xlink:href="#bbburst-shape-1" width="33.14663087671027" opacity="0.36716159954760363" transform="matrix(0.7353552804798302,-0.6776817921933791,0.6776817921933791,0.7353552804798302,-167.08916637022622,139.98253468498746)" fill="#ff5c58" filter="url(#bbburst-blur-2)"></use><use xlink:href="#bbburst-shape-6" width="36.80964596083015" opacity="0.05517227924621271" transform="matrix(1.635579368582959,0.622398689800814,-0.622398689800814,1.635579368582959,973.0598670501588,-500.8706241864677)" fill="#ffbd9b" filter="url(#bbburst-blur-4)"></use><use xlink:href="#bbburst-shape-1" width="23.850618258171096" opacity="0.5988647500250882" transform="matrix(0.897196841952769,-0.44163087164506293,0.44163087164506293,0.897196841952769,358.5617729213587,152.7046050425397)" fill="#ffa6d5" filter="url(#bbburst-blur-1)"></use><use xlink:href="#bbburst-shape-10" width="31.591242484861485" opacity="0.31074469657940207" transform="matrix(1.1075055836163248,-0.5795958784003419,0.5795958784003419,1.1075055836163248,453.8137133459892,-99.45873144359575)" fill="none" stroke="#2c2891" filter="url(#bbburst-blur-3)"></use><use xlink:href="#bbburst-shape-6" width="32.50772489458807" opacity="0.19013722893135032" transform="matrix(0.9761762315767337,-0.7807560213694462,0.7807560213694462,0.9761762315767337,435.82010277444675,40.31279960145224)" fill="#2c2891" filter="url(#bbburst-blur-3)"></use><use xlink:href="#bbburst-shape-1" width="17.306827836503928" opacity="0.8172306803552951" transform="matrix(0.9799659872290397,0.19916491627345784,-0.19916491627345784,0.9799659872290397,423.26998480965335,73.16201730050994)" fill="#2c2891"></use><use xlink:href="#bbburst-shape-6" width="34.58468849681771" opacity="0.04361348057871539" transform="matrix(1.2807336425252183,-1.1925692168189177,1.1925692168189177,1.2807336425252183,-336.3591843271514,267.44628239723056)" fill="#ffbd9b" filter="url(#bbburst-blur-4)"></use><use xlink:href="#bbburst-shape-8" width="30.746254581793444" opacity="0.15041059759138542" transform="matrix(0.9129843095338525,-0.8537913389962413,0.8537913389962413,0.9129843095338525,-76.56189686373256,-314.72727300927374)" fill="none" stroke="#ffa6d5" filter="url(#bbburst-blur-3)"></use><use xlink:href="#bbburst-shape-4" width="29.08655277952775" opacity="0.47276435560323316" transform="matrix(0.9108127926193952,0.4128196419755953,-0.4128196419755953,0.9108127926193952,787.6497008520477,3.26223275665933)" fill="#ffbd9b" filter="url(#bbburst-blur-2)"></use><use xlink:href="#bbburst-shape-6" width="39.049027014208136" opacity="0.22398050923472546" transform="matrix(1.0092096022901682,-0.7375608304711692,0.7375608304711692,1.0092096022901682,-82.35192419004119,317.06512230659376)" fill="#ffa6d5" filter="url(#bbburst-blur-3)"></use><use xlink:href="#bbburst-shape-10" width="43.30393439587228" opacity="0.08623079080082718" transform="matrix(1.347141577977002,1.117009207162427,-1.117009207162427,1.347141577977002,589.5448212570889,-505.17793005811666)" fill="none" stroke="#ffa6d5" filter="url(#bbburst-blur-4)"></use><use xlink:href="#bbburst-shape-4" width="25.584579457893117" opacity="0.544800107566264" transform="matrix(0.8992196348451279,0.43749748377447256,-0.43749748377447256,0.8992196348451279,660.9630253725605,214.89628433641315)" fill="#ffa6d5" filter="url(#bbburst-blur-2)"></use><use xlink:href="#bbburst-shape-10" width="30.378398548027675" opacity="0.3923962231507965" transform="matrix(0.8709830939747044,0.49131298579444355,-0.49131298579444355,0.8709830939747044,740.4908588115618,267.8606684976526)" fill="none" stroke="#ffa6d5" filter="url(#bbburst-blur-2)"></use><use xlink:href="#bbburst-shape-6" width="29.270334070967643" opacity="0.6421457994094392" transform="matrix(0.9897764355687683,0.14262751344948804,-0.14262751344948804,0.9897764355687683,470.59385968805003,160.57878559895795)" fill="#2c2891" filter="url(#bbburst-blur-1)"></use><use xlink:href="#bbburst-shape-6" width="17.97137952225017" opacity="0.7934119648124911" transform="matrix(0.995154030109943,-0.09832830902613295,0.09832830902613295,0.995154030109943,369.4607813679933,-88.43527246351044)" fill="#ffa6d5"></use><use xlink:href="#bbburst-shape-1" width="19.82027260435985" opacity="0.8481342491445168" transform="matrix(0.97834840722472,-0.20696471699507923,0.20696471699507923,0.97834840722472,253.03365731510473,-30.507978128391983)" fill="#ffa6d5"></use><use xlink:href="#bbburst-shape-4" width="16.439344086267027" opacity="0.756940536294804" transform="matrix(0.9693308263181624,-0.24575953521552008,0.24575953521552008,0.9693308263181624,320.7251826895365,120.29588350375406)" fill="#ffa6d5" filter="url(#bbburst-blur-1)"></use><use xlink:href="#bbburst-shape-1" width="24.75112011388102" opacity="0.14931542522817332" transform="matrix(1.2213433081168368,0.26612125754667104,-0.26612125754667104,1.2213433081168368,855.922955836608,-208.45575888111426)" fill="#ffa6d5" filter="url(#bbburst-blur-3)"></use><use xlink:href="#bbburst-shape-10" width="25.761350291427817" opacity="0.1792939237065122" transform="matrix(1.2499052066409213,0.015393973233579867,-0.015393973233579867,1.2499052066409213,428.887376297138,267.11046698883024)" fill="none" stroke="#2c2891" filter="url(#bbburst-blur-3)"></use><use xlink:href="#bbburst-shape-6" width="24.769652838603278" opacity="0.7222360728875664" transform="matrix(0.9219591235339157,0.38728719903009173,-0.38728719903009173,0.9219591235339157,454.26604971988706,113.94941477896373)" fill="#ffa6d5" filter="url(#bbburst-blur-1)"></use><use xlink:href="#bbburst-shape-8" width="16.21357794699428" opacity="0.919595301260106" transform="matrix(0.7330282094798616,0.680198238829496,-0.680198238829496,0.7330282094798616,648.8699772839884,133.07074256523833)" fill="none" stroke="#00a19d"></use><use xlink:href="#bbburst-shape-6" width="39.36493393425268" opacity="0.32029445455251604" transform="matrix(1.220258056960424,0.2710540064695049,-0.2710540064695049,1.220258056960424,289.173855302296,-328.89511527190405)" fill="#00a19d" filter="url(#bbburst-blur-3)"></use><use xlink:href="#bbburst-shape-1" width="12.444300485466977" opacity="0.8802340879885207" transform="matrix(0.9346943605368342,0.35545246149188303,-0.35545246149188303,0.9346943605368342,576.6627468684624,59.70656999079904)" fill="#ff5c58"></use><use xlink:href="#bbburst-shape-10" width="38.656871874034366" opacity="-0.08139206754007122" transform="matrix(1.5340776428962286,-0.8420841914950972,0.8420841914950972,1.5340776428962286,374.8181906076044,-544.2228971941338)" fill="none" stroke="#2c2891" filter="url(#bbburst-blur-4)"></use><use xlink:href="#bbburst-shape-6" width="15.743407704318482" opacity="0.8526204246679026" transform="matrix(0.9092938733651884,0.41615460091236856,-0.41615460091236856,0.9092938733651884,493.05227256756336,29.982191003679077)" fill="#00a19d"></use><use xlink:href="#bbburst-shape-8" width="19.063775987012523" opacity="0.7128235043470301" transform="matrix(0.9222471276493553,-0.386600873696004,0.386600873696004,0.9222471276493553,354.75049540752593,87.0676624886853)" fill="none" stroke="#2c2891" filter="url(#bbburst-blur-1)"></use><use xlink:href="#bbburst-shape-6" width="21.292827781241805" opacity="0.789213808534849" transform="matrix(0.9974521509441969,0.07133867518250563,-0.07133867518250563,0.9974521509441969,483.2085487119765,69.0649929800698)" fill="#00a19d"></use><use xlink:href="#bbburst-shape-6" width="40.11882937310091" opacity="0.03125359838308506" transform="matrix(1.7499611304667226,0.011663698196949849,-0.011663698196949849,1.7499611304667226,723.4759512135936,-45.688266369657754)" fill="#ff5c58" filter="url(#bbburst-blur-4)"></use><use xlink:href="#bbburst-shape-6" width="26.403046756657993" opacity="0.5698329344395338" transform="matrix(0.8985185669446141,-0.4389355133226258,0.4389355133226258,0.8985185669446141,356.81618305671986,-82.69658428453806)" fill="#00a19d" filter="url(#bbburst-blur-1)"></use><use xlink:href="#bbburst-shape-4" width="29.251709492168608" opacity="0.48499105382805774" transform="matrix(0.8265542862323512,-0.5628570084052684,0.5628570084052684,0.8265542862323512,-65.94057605605596,40.27706836757943)" fill="#2c2891" filter="url(#bbburst-blur-2)"></use><use xlink:href="#bbburst-shape-4" width="31.410942907924227" opacity="0.43602770664508217" transform="matrix(0.7677615570184972,-0.6407356643457057,0.6407356643457057,0.7677615570184972,-99.30348889871561,208.1528260335126)" fill="#2c2891" filter="url(#bbburst-blur-2)"></use><use xlink:href="#bbburst-shape-10" width="21.283371855621024" opacity="0.6631048459423925" transform="matrix(0.9945845122403737,-0.10393097715107794,0.10393097715107794,0.9945845122403737,196.27516698773144,6.503049825722712)" fill="none" stroke="#ff5c58" filter="url(#bbburst-blur-1)"></use><use xlink:href="#bbburst-shape-10" width="27.065478737601634" opacity="0.7230731177021954" transform="matrix(0.9616134061385803,-0.27440782994396834,0.27440782994396834,0.9616134061385803,358.5743211290514,-75.33251797757816)" fill="none" stroke="#ffa6d5" filter="url(#bbburst-blur-1)"></use><use xlink:href="#bbburst-shape-6" width="32.563308274630145" opacity="0.4971688118220128" transform="matrix(0.9888250502529676,-0.14908058221048134,0.14908058221048134,0.9888250502529676,184.9783818964001,-171.42320196180435)" fill="#ffbd9b" filter="url(#bbburst-blur-2)"></use><use xlink:href="#bbburst-shape-10" width="25.96641314634289" opacity="0.5919711553302021" transform="matrix(0.9790265500778479,-0.20373270292878154,0.20373270292878154,0.9790265500778479,273.3107630276671,191.7509326211399)" fill="none" stroke="#ffa6d5" filter="url(#bbburst-blur-1)"></use><use xlink:href="#bbburst-shape-10" width="37.636237418284935" opacity="0.3115856050408856" transform="matrix(1.200249361329502,-0.3491439110569197,0.3491439110569197,1.200249361329502,113.7844144061662,-357.42862807809854)" fill="none" stroke="#00a19d" filter="url(#bbburst-blur-3)"></use><use xlink:href="#bbburst-shape-10" width="36.455463473667145" opacity="0.34672207645020203" transform="matrix(0.999566764204587,-0.029432701159960648,0.029432701159960648,0.999566764204587,428.84146530260585,-287.3177539394142)" fill="none" stroke="#2c2891" filter="url(#bbburst-blur-2)"></use><use xlink:href="#bbburst-shape-6" width="14.237462229218583" opacity="0.8566141064499011" transform="matrix(0.891396229185899,-0.4532248477225848,0.4532248477225848,0.891396229185899,199.24694283636302,-16.50814354018553)" fill="#2c2891"></use><use xlink:href="#bbburst-shape-6" width="27.02891696145285" opacity="0.5812832107520356" transform="matrix(0.9999422507052117,-0.010746871851637651,0.010746871851637651,0.9999422507052117,475.5300891837057,-163.5085828460944)" fill="#00a19d" filter="url(#bbburst-blur-1)"></use><use xlink:href="#bbburst-shape-4" width="47.17700615200548" opacity="-0.08551145025904061" transform="matrix(1.2445050363066246,1.2303280922613478,-1.2303280922613478,1.2445050363066246,511.2438878064012,212.45771635985056)" fill="#2c2891" filter="url(#bbburst-blur-4)"></use><use xlink:href="#bbburst-shape-6" width="23.857397768380743" opacity="0.27803502690694115" transform="matrix(1.247470446012471,0.07948261649849547,-0.07948261649849547,1.247470446012471,405.80861219233094,224.75849322850866)" fill="#2c2891" filter="url(#bbburst-blur-3)"></use><use xlink:href="#bbburst-shape-1" width="18.952343045268577" opacity="0.6089310174559389" transform="matrix(0.9964404621329038,0.0842994983636624,-0.0842994983636624,0.9964404621329038,598.1353180497937,-26.590768946458354)" fill="#ffa6d5" filter="url(#bbburst-blur-1)"></use><use xlink:href="#bbburst-shape-8" width="20.63254782696376" opacity="0.5820631630673478" transform="matrix(0.8872563003142625,-0.461276768927991,0.461276768927991,0.8872563003142625,55.709369694293486,-62.76045433407461)" fill="none" stroke="#2c2891" filter="url(#bbburst-blur-1)"></use><use xlink:href="#bbburst-shape-10" width="27.579540249118548" opacity="0.48114277231129965" transform="matrix(0.9180906605088301,0.396370456878991,-0.396370456878991,0.9180906605088301,467.49971767903503,-192.63595472528596)" fill="none" stroke="#ffa6d5" filter="url(#bbburst-blur-2)"></use><use xlink:href="#bbburst-shape-6" width="34.506563210838145" opacity="0.3171944987859844" transform="matrix(0.9600787722020783,0.800467832687204,-0.800467832687204,0.9600787722020783,468.28228465672396,199.70637697687528)" fill="#ffbd9b" filter="url(#bbburst-blur-3)"></use><use xlink:href="#bbburst-shape-10" width="24.692998631275866" opacity="0.436130678972646" transform="matrix(0.735580429823975,-0.6774374002518433,0.6774374002518433,0.735580429823975,316.7548437690061,274.28726189931353)" fill="none" stroke="#2c2891" filter="url(#bbburst-blur-2)"></use><use xlink:href="#bbburst-shape-10" width="19.578966783638634" opacity="0.7627232204482655" transform="matrix(0.9987543461664847,0.04989745498076645,-0.04989745498076645,0.9987543461664847,305.12975866065744,-19.09244079629144)" fill="none" stroke="#ff5c58" filter="url(#bbburst-blur-1)"></use><use xlink:href="#bbburst-shape-10" width="17.90134197237605" opacity="0.6858869350178395" transform="matrix(0.9002707959697709,-0.4353303273652722,0.4353303273652722,0.9002707959697709,257.92838571645456,-91.74989637160331)" fill="none" stroke="#ffa6d5" filter="url(#bbburst-blur-1)"></use><use xlink:href="#bbburst-shape-4" width="36.80043113165431" opacity="0.15736536996156358" transform="matrix(0.9576507183460079,0.8033710858945418,-0.8033710858945418,0.9576507183460079,342.9426188074542,-114.58132031414345)" fill="#00a19d" filter="url(#bbburst-blur-3)"></use><use xlink:href="#bbburst-shape-6" width="13.653664629422522" opacity="0.9601136545135371" transform="matrix(0.7689362481961184,-0.6393254618815658,0.6393254618815658,0.7689362481961184,154.72797943436734,105.4756297494418)" fill="#00a19d"></use><use xlink:href="#bbburst-shape-4" width="14.83449289673989" opacity="0.8527853167903501" transform="matrix(0.9854252688204553,-0.1701089050289058,0.1701089050289058,0.9854252688204553,265.8059655104837,37.5358785133501)" fill="#ffa6d5"></use><use xlink:href="#bbburst-shape-8" width="36.437765691494576" opacity="0.18880651686905248" transform="matrix(1.1817639728930103,0.40734986482399677,-0.40734986482399677,1.1817639728930103,177.16653719190475,-56.062413856648675)" fill="none" stroke="#ffa6d5" filter="url(#bbburst-blur-3)"></use><use xlink:href="#bbburst-shape-1" width="32.44643753540346" opacity="0.04587053361234461" transform="matrix(1.7470572362545955,0.1014446314521115,-0.1014446314521115,1.7470572362545955,53.861755235562846,-536.870107446806)" fill="#ffa6d5" filter="url(#bbburst-blur-4)"></use><use xlink:href="#bbburst-shape-6" width="17.941314456467097" opacity="0.6690189726516746" transform="matrix(0.9981237477875343,-0.061228948239918264,0.061228948239918264,0.9981237477875343,500.0303800280697,-64.78918385045193)" fill="#ffbd9b" filter="url(#bbburst-blur-1)"></use><use xlink:href="#bbburst-shape-8" width="20.555894611855674" opacity="0.800170335335961" transform="matrix(0.9781259741777691,-0.2080134097571361,0.2080134097571361,0.9781259741777691,388.8161066128222,-25.854362716921173)" fill="none" stroke="#2c2891"></use><use xlink:href="#bbburst-shape-10" width="30.64599004264278" opacity="0.611360864060187" transform="matrix(0.9763116284453753,0.21636913865507582,-0.21636913865507582,0.9763116284453753,320.8206811194125,94.78837187050851)" fill="none" stroke="#ffa6d5" filter="url(#bbburst-blur-1)"></use><use xlink:href="#bbburst-shape-10" width="32.02258133256672" opacity="0.4488158557216019" transform="matrix(0.7307460454140277,-0.6826494101013783,0.6826494101013783,0.7307460454140277,344.1940575109915,214.02750550611)" fill="none" stroke="#2c2891" filter="url(#bbburst-blur-2)"></use><use xlink:href="#bbburst-shape-4" width="47.67389569033179" opacity="-0.07728576741951532" transform="matrix(1.545535054655799,0.8208662466139636,-0.8208662466139636,1.545535054655799,351.86398116530086,-583.659253862882)" fill="#ffa6d5" filter="url(#bbburst-blur-4)"></use><use xlink:href="#bbburst-shape-4" width="43.81182476040615" opacity="0.21104296657775068" transform="matrix(1.1025468260147573,-0.5889741050715089,0.5889741050715089,1.1025468260147573,-137.18437673735787,-249.56662078662728)" fill="#ff5c58" filter="url(#bbburst-blur-3)"></use><use xlink:href="#bbburst-shape-4" width="14.992882697271979" opacity="0.9325581204244879" transform="matrix(0.9559579297243679,-0.2935037250140114,0.2935037250140114,0.9559579297243679,272.9761704679863,-10.418883830941638)" fill="#2c2891"></use><use xlink:href="#bbburst-shape-4" width="42.715460057800925" opacity="0.08262412661190921" transform="matrix(1.282095389936345,1.1911051217688433,-1.1911051217688433,1.282095389936345,488.2377968800178,62.42311402653763)" fill="#ff5c58" filter="url(#bbburst-blur-4)"></use><use xlink:href="#bbburst-shape-1" width="47.326222006525825" opacity="0.23974659249670371" transform="matrix(0.9450382389762517,0.8181703532105432,-0.8181703532105432,0.9450382389762517,384.8501906969472,123.67145605470205)" fill="#ffbd9b" filter="url(#bbburst-blur-3)"></use><use xlink:href="#bbburst-shape-10" width="31.67584062650252" opacity="0.16256564068131385" transform="matrix(1.183941288146921,0.4009775881779549,-0.4009775881779549,1.183941288146921,442.47604957209865,283.6371872137061)" fill="none" stroke="#2c2891" filter="url(#bbburst-blur-3)"></use><use xlink:href="#bbburst-shape-4" width="37.77561621811558" opacity="0.4735232123603944" transform="matrix(0.83496042016369,-0.5503100005997295,0.5503100005997295,0.83496042016369,378.27831946168624,-24.88530536472581)" fill="#ff5c58" filter="url(#bbburst-blur-2)"></use><use xlink:href="#bbburst-shape-1" width="37.78041997432304" opacity="0.2362804392012221" transform="matrix(1.1571673838422178,-0.47271941548000435,0.47271941548000435,1.1571673838422178,340.5528507017598,-362.37149219418905)" fill="#ffa6d5" filter="url(#bbburst-blur-3)"></use><use xlink:href="#bbburst-shape-10" width="30.15810405460614" opacity="0.3919277925021224" transform="matrix(0.9935094982298166,-0.1137491842921879,0.1137491842921879,0.9935094982298166,538.4915391669563,-183.53086545968912)" fill="none" stroke="#2c2891" filter="url(#bbburst-blur-2)"></use><use xlink:href="#bbburst-shape-10" width="29.55391153362154" opacity="0.36280369885060215" transform="matrix(0.9179158291878975,-0.3967751636963869,0.3967751636963869,0.9179158291878975,512.8076281383173,69.47496742700957)" fill="none" stroke="#2c2891" filter="url(#bbburst-blur-2)"></use><use xlink:href="#bbburst-shape-1" width="18.74611969269213" opacity="0.8331595465053907" transform="matrix(0.7632657172742778,-0.6460847040704355,0.6460847040704355,0.7632657172742778,208.19141849228072,114.75493313122121)" fill="#2c2891"></use><use xlink:href="#bbburst-shape-10" width="35.03590349300427" opacity="0.3789278092071712" transform="matrix(0.9078947399007797,0.41919821237750454,-0.41919821237750454,0.9078947399007797,630.3036460136914,297.7218099920061)" fill="none" stroke="#00a19d" filter="url(#bbburst-blur-2)"></use><use xlink:href="#bbburst-shape-8" width="26.621954536064518" opacity="0.28915437720974413" transform="matrix(1.2185947051081334,-0.27843660801414244,0.27843660801414244,1.2185947051081334,568.1522418634015,38.15735212003807)" fill="none" stroke="#ff5c58" filter="url(#bbburst-blur-3)"></use><use xlink:href="#bbburst-shape-4" width="26.43336964541586" opacity="0.5922515611965058" transform="matrix(0.9995586411221522,0.02970728796165103,-0.02970728796165103,0.9995586411221522,395.073369545714,-183.6436165998384)" fill="#ff5c58" filter="url(#bbburst-blur-1)"></use><use xlink:href="#bbburst-shape-4" width="16.25663951026898" opacity="0.9429844022039058" transform="matrix(0.7309227034660302,-0.6824602563943997,0.6824602563943997,0.7309227034660302,95.84260951650765,108.59372949285012)" fill="#2c2891"></use><use xlink:href="#bbburst-shape-4" width="36.295258871113916" opacity="0.40901563482250225" transform="matrix(0.8100388912516938,0.5863761545797428,-0.5863761545797428,0.8100388912516938,755.3798477276497,-163.43609609702872)" fill="#2c2891" filter="url(#bbburst-blur-2)"></use><use xlink:href="#bbburst-shape-6" width="39.036320280177684" opacity="0.2728286420567604" transform="matrix(1.0402008511367162,0.6931682258257739,-0.6931682258257739,1.0402008511367162,938.7082055755492,-196.03609429713907)" fill="#2c2891" filter="url(#bbburst-blur-3)"></use><use xlink:href="#bbburst-shape-6" width="36.05992005218054" opacity="0.13772312261817976" transform="matrix(1.0817660927789177,-0.6263242934086417,0.6263242934086417,1.0817660927789177,-152.94116437153113,244.1547251889437)" fill="#ffbd9b" filter="url(#bbburst-blur-3)"></use><use xlink:href="#bbburst-shape-1" width="26.54060020319182" opacity="0.41118516951287154" transform="matrix(0.9395882960285709,0.3423066373386977,-0.3423066373386977,0.9395882960285709,501.5833638858041,-244.32449871515138)" fill="#00a19d" filter="url(#bbburst-blur-2)"></use><use xlink:href="#bbburst-shape-6" width="20.549501618003973" opacity="0.7238874081403642" transform="matrix(0.7702992386215529,0.6376825879534863,-0.6376825879534863,0.7702992386215529,771.4079691265246,84.83935105631343)" fill="#ffa6d5" filter="url(#bbburst-blur-1)"></use><use xlink:href="#bbburst-shape-1" width="15.562693150201408" opacity="0.872392712640687" transform="matrix(0.9425044840421194,0.33419350316919433,-0.33419350316919433,0.9425044840421194,538.264897132602,76.58736969831745)" fill="#2c2891"></use><use xlink:href="#bbburst-shape-4" width="44.36215284999478" opacity="0.41440921439094713" transform="matrix(0.9739517041072473,0.22675554693675945,-0.22675554693675945,0.9739517041072473,243.8526167887964,-131.3514557024851)" fill="#ffa6d5" filter="url(#bbburst-blur-2)"></use><use xlink:href="#bbburst-shape-4" width="24.300730070833733" opacity="0.5671797916699939" transform="matrix(0.9428617561823156,0.33318419639712754,-0.33318419639712754,0.9428617561823156,712.410941182035,58.90705283909159)" fill="#ffa6d5" filter="url(#bbburst-blur-1)"></use><use xlink:href="#bbburst-shape-10" width="28.93707569834099" opacity="0.4950655788330942" transform="matrix(0.8610483598217697,-0.508523079169707,0.508523079169707,0.8610483598217697,20.677021422142133,220.7717185865468)" fill="none" stroke="#00a19d" filter="url(#bbburst-blur-2)"></use><use xlink:href="#bbburst-shape-4" width="32.87542892751771" opacity="0.502827180922248" transform="matrix(0.7124987011460334,0.7016734289291674,-0.7016734289291674,0.7124987011460334,580.1204472019206,308.8310082413417)" fill="#2c2891" filter="url(#bbburst-blur-2)"></use><use xlink:href="#bbburst-shape-4" width="19.251137148661748" opacity="0.6714749481122088" transform="matrix(0.8417530998543648,0.5398626852131639,-0.5398626852131639,0.8417530998543648,518.200704173451,-59.44819148389422)" fill="#2c2891" filter="url(#bbburst-blur-1)"></use><use xlink:href="#bbburst-shape-10" width="16.931403574666632" opacity="0.781051980776134" transform="matrix(0.8471912891440693,0.5312879817936879,-0.5312879817936879,0.8471912891440693,555.4847792962491,-28.354463034561263)" fill="none" stroke="#2c2891"></use><use xlink:href="#bbburst-shape-6" width="22.90902511441017" opacity="0.7268267973710458" transform="matrix(0.7903699433249396,-0.6126298659782526,0.6126298659782526,0.7903699433249396,42.12957732946339,24.960287660567474)" fill="#2c2891" filter="url(#bbburst-blur-1)"></use><use xlink:href="#bbburst-shape-8" width="32.63599527996604" opacity="0.22270351035834401" transform="matrix(1.24895444355883,0.05111553496397099,-0.05111553496397099,1.24895444355883,602.1153984253863,185.10888629779544)" fill="none" stroke="#00a19d" filter="url(#bbburst-blur-3)"></use><use xlink:href="#bbburst-shape-10" width="33.74251981372725" opacity="0.22199958255707053" transform="matrix(0.9609972890604023,-0.7993648794002384,0.7993648794002384,0.9609972890604023,332.3848197460864,253.94649452952888)" fill="none" stroke="#2c2891" filter="url(#bbburst-blur-3)"></use><use xlink:href="#bbburst-shape-10" width="16.12546517994403" opacity="0.8431827735640599" transform="matrix(0.7297572307233163,0.6837063581736215,-0.6837063581736215,0.7297572307233163,707.0357335891542,44.06511356777827)" fill="none" stroke="#00a19d"></use><use xlink:href="#bbburst-shape-10" width="19.853784031465594" opacity="0.7230935748356155" transform="matrix(0.9725022519907187,-0.23289347322967344,0.23289347322967344,0.9725022519907187,278.61679829249226,-109.90512512737786)" fill="none" stroke="#ff5c58" filter="url(#bbburst-blur-1)"></use><use xlink:href="#bbburst-shape-1" width="19.450608833130854" opacity="0.6179952635993715" transform="matrix(0.9767885428295051,0.21420584165006323,-0.21420584165006323,0.9767885428295051,414.09901013343176,-153.07577324596338)" fill="#2c2891" filter="url(#bbburst-blur-1)"></use><use xlink:href="#bbburst-shape-6" width="33.47126978918956" opacity="0.05598513557068452" transform="matrix(1.3038994424753623,1.1671958892629974,-1.1671958892629974,1.3038994424753623,1070.8354260142362,218.7465303914962)" fill="#ffa6d5" filter="url(#bbburst-blur-4)"></use><use xlink:href="#bbburst-shape-8" width="16.81544926641269" opacity="0.9055314984107398" transform="matrix(0.834393069882186,-0.5511698512551113,0.5511698512551113,0.834393069882186,210.68783217788283,52.16494123968084)" fill="none" stroke="#2c2891"></use><use xlink:href="#bbburst-shape-4" width="23.671224501015743" opacity="0.7171816282893846" transform="matrix(0.8926883084485367,0.45067458765642654,-0.45067458765642654,0.8926883084485367,533.295545629726,159.56196747235305)" fill="#ffa6d5" filter="url(#bbburst-blur-1)"></use><use xlink:href="#bbburst-shape-1" width="27.28227878597948" opacity="0.6788972498816329" transform="matrix(0.9238352705569932,0.3827902727014979,-0.3827902727014979,0.9238352705569932,623.9807831628405,143.21818739182413)" fill="#2c2891" filter="url(#bbburst-blur-1)"></use></svg>